<?xml version="1.0" encoding="iso-8859-1"?>
<!-- Generator: Adobe Illustrator 18.0.0, SVG Export Plug-In . SVG Version: 6.00 Build 0)  -->
<!DOCTYPE svg PUBLIC "-//W3C//DTD SVG 1.1//EN" "http://www.w3.org/Graphics/SVG/1.1/DTD/svg11.dtd">
<svg version="1.1" id="Capa_1" xmlns="http://www.w3.org/2000/svg" xmlns:xlink="http://www.w3.org/1999/xlink" x="0px" y="0px"
	 viewBox="0 0 485.46 485.46" style="enable-background:new 0 0 485.46 485.46;" xml:space="preserve" width="36" height="36">
<g>
	<path d="M404.624,268.957h31.342C431.644,117.219,348.455,0,242.729,0C137.004,0,53.816,117.219,49.494,268.957h31.342H404.624z
		 M242.729,49.174c60.314,0,113.267,63.108,134.491,149.513c-10.325-14.719-22.762-24.987-36.159-24.987
		c-15.944-0.008-30.542,14.614-41.811,33.935c-11.06-32.879-32.206-66.717-56.536-66.717c-24.299,0-45.461,33.838-56.506,66.717
		c-11.285-19.32-25.867-33.943-41.842-33.935c-13.381,0-25.803,10.245-36.127,24.947C129.48,112.257,182.431,49.174,242.729,49.174z
		"/>
	<path d="M441.056,301.74H327.791c-6.61-9.804-16.039-15.575-26.475-15.575c-6.805,0-13.367,2.465-19.018,7.132l-10.197,8.443
		h-58.713l-11.027-9.115c-5.508-4.547-11.926-6.957-18.584-6.957c-10.55-0.008-20.059,5.932-26.541,16.072H44.402
		c-22.633,0-40.977,18.343-40.977,40.978c0,22.635,18.344,40.978,40.977,40.978h4.292c4.112,11.51,9.731,22.449,16.519,32.782
		c15.719,23.971,37.985,44.499,65.004,59.643c11.014,6.17,23.258,9.34,35.872,9.34h153.315c12.532,0,24.94-3.21,35.871-9.34
		c27.02-15.15,49.285-35.672,64.988-59.643c6.772-10.333,12.39-21.272,16.502-32.782h4.291c22.634,0,40.979-18.343,40.979-40.978
		C482.035,320.083,463.69,301.74,441.056,301.74z M274.728,320.829l18.023-14.903c2.754-2.281,5.682-3.37,8.564-3.37
		c6.898,0,13.573,6.227,17.19,17.176c7.636,23.082,7.507,51.381-0.337,74.263c-3.488,10.164-9.732,15.911-16.215,15.911
		c-2.752,0-5.539-1.032-8.162-3.201l-19.064-15.767c-1.648-1.36-3.346-2.432-5.025-3.57c4.992-6.058,8.115-13.718,8.115-22.169
		v-18.44c0-8.509-3.17-16.216-8.213-22.291C271.318,323.309,273.047,322.212,274.728,320.829z M224.033,365.2v-18.44
		c0-10.309,8.387-18.696,18.696-18.696c10.31,0,18.697,8.387,18.697,18.696v18.44c0,10.308-8.388,18.696-18.697,18.696
		C232.419,383.896,224.033,375.508,224.033,365.2z M166.953,319.732l0.432-1.321c3.458-10.42,9.813-16.352,16.393-16.352
		c2.736,0,5.521,1.033,8.146,3.202l18.841,15.568c1.664,1.384,3.394,2.472,5.106,3.632c-5.059,6.083-8.229,13.79-8.229,22.299v18.44
		c0,8.451,3.122,16.119,8.132,22.177c-1.681,1.136-3.377,2.209-5.01,3.561l-19.097,15.759c-2.625,2.168-5.411,3.209-8.148,3.209
		c-6.482,0-12.74-5.753-16.23-15.911C159.462,371.114,159.318,342.815,166.953,319.732z"/>
</g>
<g>
</g>
<g>
</g>
<g>
</g>
<g>
</g>
<g>
</g>
<g>
</g>
<g>
</g>
<g>
</g>
<g>
</g>
<g>
</g>
<g>
</g>
<g>
</g>
<g>
</g>
<g>
</g>
<g>
</g>
</svg>
